<mxfile host="65bd71144e">
    <diagram name="Page-1" id="lMXFKlL8Bwvw9kg3FBqw">
        <mxGraphModel dx="1002" dy="1663" grid="1" gridSize="10" guides="1" tooltips="1" connect="1" arrows="1" fold="1" page="1" pageScale="1" pageWidth="850" pageHeight="1100" background="none" math="0" shadow="0">
            <root>
                <mxCell id="0"/>
                <mxCell id="1" style="" parent="0"/>
                <mxCell id="GoKNf1hH-Z8f_osksqzi-78" value="" style="rounded=1;whiteSpace=wrap;html=1;fontFamily=Helvetica;fontSize=11;fontColor=#000000;labelBackgroundColor=default;resizable=1;fillColor=#FFFFFF;opacity=90;strokeColor=#000000;strokeWidth=4;align=center;verticalAlign=middle;arcSize=12;movable=1;rotatable=1;deletable=1;editable=1;connectable=1;shadow=1;" parent="1" vertex="1">
                    <mxGeometry x="130" y="-800" width="870" height="1040" as="geometry"/>
                </mxCell>
                <mxCell id="40" value="" style="group" parent="1" vertex="1" connectable="0">
                    <mxGeometry x="135" y="-800" width="845" height="310" as="geometry"/>
                </mxCell>
                <mxCell id="3" value="" style="rounded=1;whiteSpace=wrap;html=1;shadow=1;opacity=90;fontSize=20;verticalAlign=top;fillColor=#b0e3e6;strokeColor=#0e8088;spacing=0;arcSize=9;strokeWidth=5;spacingTop=10;spacingLeft=10;spacingRight=10;" parent="40" vertex="1">
                    <mxGeometry x="45" y="50" width="760" height="230" as="geometry"/>
                </mxCell>
                <mxCell id="em2XX1OPzqwU3cxCynbA-2" value="" style="group" parent="40" vertex="1" connectable="0">
                    <mxGeometry x="5" y="10" width="840" height="310" as="geometry"/>
                </mxCell>
                <mxCell id="GoKNf1hH-Z8f_osksqzi-60" value="Database" style="html=1;overflow=block;blockSpacing=1;whiteSpace=wrap;shape=cylinder3;size=4;anchorPointDirection=0;boundedLbl=1;fontSize=18;spacing=9;strokeColor=#000000;rounded=1;absoluteArcSize=1;arcSize=9;fillColor=#FFFFFF;strokeWidth=2;lucidId=YW3Kp418ABGM;fontColor=#000000;movable=1;resizable=1;rotatable=1;deletable=1;editable=1;locked=0;connectable=1;align=center;verticalAlign=middle;fontFamily=Helvetica;fontStyle=1;" parent="em2XX1OPzqwU3cxCynbA-2" vertex="1">
                    <mxGeometry x="647.5" y="90" width="95" height="110" as="geometry"/>
                </mxCell>
                <mxCell id="GoKNf1hH-Z8f_osksqzi-57" value="Process" style="html=1;overflow=block;blockSpacing=1;whiteSpace=wrap;fontSize=18;spacing=9;rounded=1;absoluteArcSize=1;arcSize=9;strokeWidth=2;lucidId=YW3KcYp1MhGA;movable=1;resizable=1;rotatable=1;deletable=1;editable=1;locked=0;connectable=1;fillColor=#FFFFFF;fontColor=#000000;strokeColor=#000000;align=center;verticalAlign=middle;fontFamily=Helvetica;fontStyle=1;" parent="40" vertex="1">
                    <mxGeometry x="85" y="120" width="120" height="90" as="geometry"/>
                </mxCell>
                <mxCell id="GoKNf1hH-Z8f_osksqzi-58" value="" style="html=1;jettySize=18;whiteSpace=wrap;fontSize=11;strokeColor=#000000;strokeOpacity=100;strokeWidth=4;rounded=1;arcSize=12;edgeStyle=orthogonalEdgeStyle;startArrow=none;endArrow=classic;endFill=1;entryX=0.004;entryY=0.578;entryPerimeter=0;lucidId=YW3KZ0~PzFLt;movable=1;resizable=1;rotatable=1;deletable=1;editable=1;locked=0;connectable=1;entryDx=0;entryDy=0;opacity=70;align=center;verticalAlign=middle;fontFamily=Helvetica;fontColor=#000000;labelBackgroundColor=default;curved=1;exitX=1;exitY=0.5;exitDx=0;exitDy=0;" parent="40" source="GoKNf1hH-Z8f_osksqzi-57" target="GoKNf1hH-Z8f_osksqzi-60" edge="1">
                    <mxGeometry width="100" height="100" relative="1" as="geometry">
                        <mxPoint x="215" y="240" as="sourcePoint"/>
                        <mxPoint x="386.8800000000001" y="163.28750000000014" as="targetPoint"/>
                    </mxGeometry>
                </mxCell>
                <mxCell id="GoKNf1hH-Z8f_osksqzi-54" value="&lt;i&gt;Transaction:&lt;/i&gt;&lt;br&gt;record_1 &amp;amp;&lt;br&gt;record_2 &amp;amp;&lt;br&gt;&lt;i&gt;&lt;font color=&quot;#ff0000&quot;&gt;persist&lt;/font&gt;&lt;/i&gt; command_1" style="html=1;overflow=block;blockSpacing=1;whiteSpace=wrap;ellipse;shape=cloud;fontSize=18;spacing=9;strokeColor=#000000;strokeOpacity=100;fillOpacity=100;rounded=1;absoluteArcSize=1;arcSize=9;fillColor=#FFFFFF;strokeWidth=2;lucidId=YW3KfiS4kU.2;movable=1;resizable=1;rotatable=1;deletable=1;editable=1;locked=0;connectable=1;align=center;verticalAlign=middle;fontFamily=Helvetica;fontColor=#000000;fontStyle=1;" parent="40" vertex="1">
                    <mxGeometry x="275" y="68.38" width="283.75" height="193.24" as="geometry"/>
                </mxCell>
                <mxCell id="em2XX1OPzqwU3cxCynbA-6" value="" style="endArrow=classic;html=1;rounded=1;opacity=70;strokeColor=#000000;strokeWidth=4;align=center;verticalAlign=middle;arcSize=12;fontFamily=Helvetica;fontSize=11;fontColor=#000000;labelBackgroundColor=default;resizable=1;startArrow=none;endFill=1;curved=0;" parent="40" edge="1">
                    <mxGeometry width="50" height="50" relative="1" as="geometry">
                        <mxPoint y="165.12" as="sourcePoint"/>
                        <mxPoint x="85" y="164.73000000000002" as="targetPoint"/>
                    </mxGeometry>
                </mxCell>
                <mxCell id="56" value="" style="group" parent="1" vertex="1" connectable="0">
                    <mxGeometry x="135" y="-90" width="845" height="310" as="geometry"/>
                </mxCell>
                <mxCell id="57" value="" style="rounded=1;whiteSpace=wrap;html=1;shadow=1;opacity=90;fontSize=20;verticalAlign=top;fillColor=#b0e3e6;strokeColor=#0e8088;spacing=0;arcSize=9;strokeWidth=5;spacingTop=10;spacingLeft=10;spacingRight=10;" parent="56" vertex="1">
                    <mxGeometry x="45" y="50" width="760" height="230" as="geometry"/>
                </mxCell>
                <mxCell id="60" value="Process" style="html=1;overflow=block;blockSpacing=1;whiteSpace=wrap;fontSize=18;spacing=9;rounded=1;absoluteArcSize=1;arcSize=9;strokeWidth=2;lucidId=YW3KcYp1MhGA;movable=1;resizable=1;rotatable=1;deletable=1;editable=1;locked=0;connectable=1;fillColor=#FFFFFF;fontColor=#000000;strokeColor=#000000;align=center;verticalAlign=middle;fontFamily=Helvetica;fontStyle=1;" parent="56" vertex="1">
                    <mxGeometry x="85" y="120" width="120" height="90" as="geometry"/>
                </mxCell>
                <mxCell id="61" value="" style="html=1;jettySize=18;whiteSpace=wrap;fontSize=11;strokeColor=#000000;strokeOpacity=100;strokeWidth=4;rounded=1;arcSize=12;edgeStyle=orthogonalEdgeStyle;startArrow=none;endArrow=classic;endFill=1;entryX=0.004;entryY=0.578;entryPerimeter=0;lucidId=YW3KZ0~PzFLt;movable=1;resizable=1;rotatable=1;deletable=1;editable=1;locked=0;connectable=1;entryDx=0;entryDy=0;opacity=70;align=center;verticalAlign=middle;fontFamily=Helvetica;fontColor=#000000;labelBackgroundColor=default;curved=1;exitX=1;exitY=0.5;exitDx=0;exitDy=0;" parent="56" source="60" target="59" edge="1">
                    <mxGeometry width="100" height="100" relative="1" as="geometry">
                        <mxPoint x="215" y="240" as="sourcePoint"/>
                        <mxPoint x="386.8800000000001" y="163.28750000000014" as="targetPoint"/>
                    </mxGeometry>
                </mxCell>
                <mxCell id="62" value="&lt;i&gt;Transaction:&lt;/i&gt;&lt;br&gt;record_1 &amp;amp;&lt;br&gt;record_2 &amp;amp;&lt;br&gt;&lt;i&gt;&lt;font color=&quot;#ff0000&quot;&gt;close &lt;/font&gt;&lt;/i&gt;command_1 &amp;amp;&lt;br&gt;&lt;i&gt;&lt;font color=&quot;#ff0000&quot;&gt;persist&lt;/font&gt;&lt;/i&gt; command_2" style="html=1;overflow=block;blockSpacing=1;whiteSpace=wrap;ellipse;shape=cloud;fontSize=18;spacing=9;strokeColor=#000000;strokeOpacity=100;fillOpacity=100;rounded=1;absoluteArcSize=1;arcSize=9;fillColor=#FFFFFF;strokeWidth=2;lucidId=YW3KfiS4kU.2;movable=1;resizable=1;rotatable=1;deletable=1;editable=1;locked=0;connectable=1;align=center;verticalAlign=middle;fontFamily=Helvetica;fontColor=#000000;fontStyle=1;" parent="56" vertex="1">
                    <mxGeometry x="275" y="68.38" width="283.75" height="193.24" as="geometry"/>
                </mxCell>
                <mxCell id="59" value="Database" style="html=1;overflow=block;blockSpacing=1;whiteSpace=wrap;shape=cylinder3;size=4;anchorPointDirection=0;boundedLbl=1;fontSize=18;spacing=9;strokeColor=#000000;rounded=1;absoluteArcSize=1;arcSize=9;fillColor=#FFFFFF;strokeWidth=2;lucidId=YW3Kp418ABGM;fontColor=#000000;movable=1;resizable=1;rotatable=1;deletable=1;editable=1;locked=0;connectable=1;align=center;verticalAlign=middle;fontFamily=Helvetica;fontStyle=1;" parent="56" vertex="1">
                    <mxGeometry x="652.5" y="100" width="95" height="110" as="geometry"/>
                </mxCell>
                <mxCell id="42" value="" style="rounded=1;whiteSpace=wrap;html=1;shadow=1;opacity=90;fontSize=20;verticalAlign=top;fillColor=#d0cee2;strokeColor=#56517e;spacing=0;arcSize=9;strokeWidth=5;spacingTop=10;spacingLeft=10;spacingRight=10;" parent="1" vertex="1">
                    <mxGeometry x="180" y="-480" width="760" height="400" as="geometry"/>
                </mxCell>
                <mxCell id="45" value="Outboxer" style="html=1;overflow=block;blockSpacing=1;whiteSpace=wrap;fontSize=18;spacing=9;rounded=1;absoluteArcSize=1;arcSize=9;strokeWidth=2;lucidId=YW3KcYp1MhGA;movable=1;resizable=1;rotatable=1;deletable=1;editable=1;locked=0;connectable=1;fillColor=#FFFFFF;fontColor=#000000;strokeColor=#000000;align=center;verticalAlign=middle;fontFamily=Helvetica;fontStyle=1;" parent="1" vertex="1">
                    <mxGeometry x="220" y="-240" width="130" height="90" as="geometry"/>
                </mxCell>
                <mxCell id="54" value="Queue" style="html=1;overflow=block;blockSpacing=1;whiteSpace=wrap;shape=cylinder3;direction=south;size=10;anchorPointDirection=0;boundedLbl=1;fontSize=18;spacing=9;strokeColor=#000000;rounded=1;absoluteArcSize=1;arcSize=9;fillColor=#FFFFFF;strokeWidth=2;lucidId=YW3Kj~0P2WnY;fontColor=#000000;movable=1;resizable=1;rotatable=1;deletable=1;editable=1;locked=0;connectable=1;align=center;verticalAlign=middle;fontFamily=Helvetica;fontStyle=1;" parent="1" vertex="1">
                    <mxGeometry x="770" y="-240" width="150" height="90" as="geometry"/>
                </mxCell>
                <mxCell id="55" value="" style="html=1;jettySize=18;whiteSpace=wrap;fontSize=11;strokeColor=#000000;strokeOpacity=100;strokeWidth=4;rounded=1;arcSize=12;edgeStyle=orthogonalEdgeStyle;startArrow=none;endArrow=classic;endFill=1;lucidId=YW3KZ0~PzFLt;movable=1;resizable=1;rotatable=1;deletable=1;editable=1;locked=0;connectable=1;opacity=70;align=center;verticalAlign=middle;fontFamily=Helvetica;fontColor=#000000;labelBackgroundColor=default;curved=1;entryX=0;entryY=0.5;entryDx=0;entryDy=0;entryPerimeter=0;" parent="1" target="54" edge="1">
                    <mxGeometry width="100" height="100" relative="1" as="geometry">
                        <Array as="points">
                            <mxPoint x="770" y="-195"/>
                            <mxPoint x="770" y="-195"/>
                        </Array>
                        <mxPoint x="350" y="-195" as="sourcePoint"/>
                        <mxPoint x="590" y="165" as="targetPoint"/>
                    </mxGeometry>
                </mxCell>
                <mxCell id="47" value="&lt;i&gt;command_1:&lt;/i&gt;&lt;br&gt;&lt;i&gt;&lt;font color=&quot;#ff0000&quot;&gt;publish&lt;/font&gt;&lt;/i&gt;&lt;br&gt;to the queue &amp;amp;&lt;br&gt;&lt;i&gt;&lt;font color=&quot;#ff0000&quot;&gt;start&amp;nbsp;&lt;/font&gt;next process&lt;/i&gt;" style="html=1;overflow=block;blockSpacing=1;whiteSpace=wrap;ellipse;shape=cloud;fontSize=18;spacing=9;strokeColor=#000000;strokeOpacity=100;fillOpacity=100;rounded=1;absoluteArcSize=1;arcSize=9;fillColor=#FFFFFF;strokeWidth=2;lucidId=YW3KfiS4kU.2;movable=1;resizable=1;rotatable=1;deletable=1;editable=1;locked=0;connectable=1;align=center;verticalAlign=middle;fontFamily=Helvetica;fontColor=#000000;fontStyle=1;" parent="1" vertex="1">
                    <mxGeometry x="415" y="-291.62" width="283.75" height="193.24" as="geometry"/>
                </mxCell>
                <mxCell id="50" style="edgeStyle=orthogonalEdgeStyle;html=1;exitX=0.75;exitY=0;exitDx=0;exitDy=0;fontColor=#000000;strokeColor=#000000;strokeWidth=4;arcSize=12;startArrow=none;endFill=1;opacity=70;curved=1;entryX=0.855;entryY=1;entryDx=0;entryDy=-1.16;entryPerimeter=0;" parent="1" source="45" target="GoKNf1hH-Z8f_osksqzi-60" edge="1">
                    <mxGeometry relative="1" as="geometry">
                        <mxPoint x="290" y="-300" as="targetPoint"/>
                        <Array as="points">
                            <mxPoint x="318" y="-300"/>
                            <mxPoint x="869" y="-300"/>
                        </Array>
                    </mxGeometry>
                </mxCell>
                <mxCell id="49" value="&lt;i&gt;command_1:&lt;/i&gt;&lt;br&gt;&lt;i&gt;&lt;font color=&quot;#ff3333&quot;&gt;poll&lt;/font&gt;&lt;/i&gt;&amp;nbsp;from &lt;br&gt;the database" style="html=1;overflow=block;blockSpacing=1;whiteSpace=wrap;ellipse;shape=cloud;fontSize=18;spacing=9;strokeColor=#000000;strokeOpacity=100;fillOpacity=100;rounded=1;absoluteArcSize=1;arcSize=9;fillColor=#FFFFFF;strokeWidth=2;lucidId=YW3KfiS4kU.2;movable=1;resizable=1;rotatable=1;deletable=1;editable=1;locked=0;connectable=1;align=center;verticalAlign=middle;fontFamily=Helvetica;fontColor=#000000;fontStyle=1;" parent="1" vertex="1">
                    <mxGeometry x="580" y="-440" width="260" height="183.24" as="geometry"/>
                </mxCell>
                <mxCell id="66" style="edgeStyle=orthogonalEdgeStyle;curved=1;html=1;exitX=0.5;exitY=1;exitDx=0;exitDy=0;exitPerimeter=0;entryX=0.5;entryY=0;entryDx=0;entryDy=0;fontColor=#000000;strokeColor=#000000;strokeWidth=4;arcSize=12;startArrow=none;endFill=1;opacity=70;" parent="1" source="54" target="60" edge="1">
                    <mxGeometry relative="1" as="geometry"/>
                </mxCell>
                <mxCell id="68" style="edgeStyle=orthogonalEdgeStyle;html=1;exitX=0.145;exitY=1;exitDx=0;exitDy=-1.16;exitPerimeter=0;entryX=0.25;entryY=0;entryDx=0;entryDy=0;strokeColor=#000000;fontColor=#000000;strokeWidth=4;arcSize=12;startArrow=none;endFill=1;opacity=70;curved=1;" edge="1" parent="1" source="GoKNf1hH-Z8f_osksqzi-60" target="45">
                    <mxGeometry relative="1" as="geometry">
                        <Array as="points">
                            <mxPoint x="801" y="-430"/>
                            <mxPoint x="253" y="-430"/>
                        </Array>
                    </mxGeometry>
                </mxCell>
                <mxCell id="69" value="&lt;i&gt;command_1:&lt;/i&gt;&lt;br&gt;&lt;font color=&quot;#ff3333&quot;&gt;&lt;i&gt;push&amp;nbsp;&lt;/i&gt;&lt;/font&gt;directly&lt;br&gt;to the Outboxer" style="html=1;overflow=block;blockSpacing=1;whiteSpace=wrap;ellipse;shape=cloud;fontSize=18;spacing=9;strokeColor=#000000;strokeOpacity=100;fillOpacity=100;rounded=1;absoluteArcSize=1;arcSize=9;fillColor=#FFFFFF;strokeWidth=2;lucidId=YW3KfiS4kU.2;movable=1;resizable=1;rotatable=1;deletable=1;editable=1;locked=0;connectable=1;align=center;verticalAlign=middle;fontFamily=Helvetica;fontColor=#000000;fontStyle=1;" vertex="1" parent="1">
                    <mxGeometry x="270" y="-490" width="270" height="183.24" as="geometry"/>
                </mxCell>
                <mxCell id="GoKNf1hH-Z8f_osksqzi-77" value="Untitled Layer" style="" parent="0"/>
            </root>
        </mxGraphModel>
    </diagram>
</mxfile>